<svg xmlns="http://www.w3.org/2000/svg" width="6" height="16" viewBox="0 0 6 16">
  <path d="M2,2 C1.72385763,2 1.5,1.77614237 1.5,1.5 L1.5,0.5 C1.5,0.223857625 1.72385763,0 2,0 L4,0 C4.27614237,-5.68434189e-14 4.5,0.223857625 4.5,0.5 L4.5,1.5 C4.5,1.77614237 4.27614237,2 4,2 L3,2 L4.0799718,2 C4.30901397,2.96236872 4.53805614,3.64588321 4.75406035,4.15662724 C4.24865661,4.26306176 3.69607794,3.5 3,3.5 C2.30392206,3.5 1.75134339,4.26306176 1.24593965,4.15662724 C1.46194386,3.64588321 1.69098603,2.96236872 1.9200282,2 L3,2 L2,2 Z M5.99995853,8.21568627 L5.99995853,14.6554622 C6.00347413,15.5518207 5.78347565,16 5.33996309,16 L0.66003691,16 C0.216524351,16 -0.00347412865,15.5518207 4.1472046e-05,14.6554622 L4.14720444e-05,8.21568627 C4.14720444e-05,7.46206247 0.447736409,5.85396379 0.66003691,5.5 C1.2110698,5.85560572 1.79653977,6.5 3,6.5 C4.20346023,6.5 4.7889302,5.85560572 5.33996309,5.5 C5.55226359,5.85396379 5.99995853,7.46206247 5.99995853,8.21568627 Z M1.5,9 C0.94771525,9 0.5,9.44771525 0.5,10 L0.5,14 C0.5,14.5522847 1.36774345,15 1.9200282,15 L3,14 L4.0799718,15 C4.63225655,15 5.5,14.5522847 5.5,14 L5.5,10 C5.5,9.44771525 5.05228475,9 4.5,9 L1.5,9 Z M3,12 C2.44771525,12 2,11.5522847 2,11 C2,10.4477153 2.44771525,10 3,10 C3.55228475,10 4,10.4477153 4,11 C4,11.5522847 3.55228475,12 3,12 Z"/>
</svg>
