<svg xmlns="http://www.w3.org/2000/svg" width="16" height="16" viewBox="0 0 16 16">
  <path d="M2,0 L5,0 C6.1045695,-2.02906125e-16 7,0.8954305 7,2 L7,5 C7,6.1045695 6.1045695,7 5,7 L2,7 C0.8954305,7 1.3527075e-16,6.1045695 0,5 L0,2 C-1.3527075e-16,0.8954305 0.8954305,2.02906125e-16 2,0 Z M11,0 L14,0 C15.1045695,-2.02906125e-16 16,0.8954305 16,2 L16,5 C16,6.1045695 15.1045695,7 14,7 L11,7 C9.8954305,7 9,6.1045695 9,5 L9,2 C9,0.8954305 9.8954305,2.02906125e-16 11,0 Z M11,9 L14,9 C15.1045695,9 16,9.8954305 16,11 L16,14 C16,15.1045695 15.1045695,16 14,16 L11,16 C9.8954305,16 9,15.1045695 9,14 L9,11 C9,9.8954305 9.8954305,9 11,9 Z M2,9 L5,9 C6.1045695,9 7,9.8954305 7,11 L7,14 C7,15.1045695 6.1045695,16 5,16 L2,16 C0.8954305,16 1.3527075e-16,15.1045695 0,14 L0,11 C-1.3527075e-16,9.8954305 0.8954305,9 2,9 Z"/>
</svg>
